<?xml version="1.0" encoding="utf-8"?>
<svg xmlns="http://www.w3.org/2000/svg" viewBox="0 0 24 24" fill="none">
  <path fill="currentColor" d="M20.43,10.22c-1.78,0-3.43-0.57-4.78-1.54v6.99c0,3.49-2.84,6.33-6.32,6.33c-1.82,0-3.47-0.78-4.63-2.02 C3.64,18.85,3,17.33,3,15.67c0-3.44,2.76-6.25,6.17-6.32l0,0c0.05,0,0.1,0,0.15,0c0.29,0,0.58,0.02,0.85,0.06v3.51 c-0.27-0.08-0.56-0.13-0.85-0.13c-1.59,0-2.89,1.3-2.89,2.89c0,0.63,0.2,1.22,0.54,1.69c0.53,0.72,1.38,1.2,2.34,1.2 c1.55,0,2.83-1.24,2.88-2.78l0-13.78h3.44c0,1.2,0.44,2.29,1.17,3.13c0.67,0.77,1.57,1.32,2.6,1.54c0.32,0.07,0.65,0.11,1,0.11 V10.22z" />
</svg>
